<svg xmlns="http://www.w3.org/2000/svg" xmlns:xlink="http://www.w3.org/1999/xlink" width="48" zoomAndPan="magnify" viewBox="0 0 36 36.000001" height="48" preserveAspectRatio="xMidYMid meet" version="1.0"><defs><clipPath id="59f9c6dfb3"><path d="M 11.125 9.617188 L 14.789062 9.617188 L 14.789062 13.28125 L 11.125 13.28125 Z M 11.125 9.617188 " clip-rule="nonzero"/></clipPath><clipPath id="abe2847c62"><path d="M 12.601562 9.632812 L 13.328125 9.632812 C 14.136719 9.632812 14.789062 10.285156 14.789062 11.09375 L 14.789062 11.820312 C 14.789062 12.628906 14.136719 13.28125 13.328125 13.28125 L 12.601562 13.28125 C 11.792969 13.28125 11.140625 12.628906 11.140625 11.820312 L 11.140625 11.09375 C 11.140625 10.285156 11.792969 9.632812 12.601562 9.632812 Z M 12.601562 9.632812 " clip-rule="nonzero"/></clipPath><clipPath id="bb2809ad1d"><path d="M 0.488281 0 L 35.511719 0 L 35.511719 35.027344 L 0.488281 35.027344 Z M 0.488281 0 " clip-rule="nonzero"/></clipPath></defs><g clip-path="url(#59f9c6dfb3)"><g clip-path="url(#abe2847c62)"><path fill="#ee374b" d="M 11.140625 9.632812 L 14.789062 9.632812 L 14.789062 13.28125 L 11.140625 13.28125 Z M 11.140625 9.632812 " fill-opacity="1" fill-rule="nonzero"/></g></g><g clip-path="url(#bb2809ad1d)"><path fill="#140d49" d="M 35.511719 17.511719 C 35.511719 18.085938 35.484375 18.660156 35.429688 19.230469 C 35.371094 19.800781 35.289062 20.367188 35.175781 20.929688 C 35.066406 21.492188 34.925781 22.046875 34.757812 22.597656 C 34.59375 23.144531 34.398438 23.6875 34.179688 24.214844 C 33.960938 24.746094 33.714844 25.261719 33.445312 25.769531 C 33.175781 26.273438 32.878906 26.765625 32.5625 27.242188 C 32.242188 27.71875 31.902344 28.179688 31.539062 28.625 C 31.175781 29.066406 30.789062 29.492188 30.382812 29.898438 C 29.976562 30.304688 29.554688 30.6875 29.109375 31.050781 C 28.667969 31.414062 28.207031 31.757812 27.730469 32.074219 C 27.253906 32.394531 26.761719 32.6875 26.253906 32.960938 C 25.75 33.230469 25.230469 33.472656 24.703125 33.695312 C 24.171875 33.914062 23.632812 34.105469 23.082031 34.273438 C 22.535156 34.4375 21.980469 34.578125 21.417969 34.691406 C 20.855469 34.800781 20.289062 34.886719 19.714844 34.941406 C 19.144531 35 18.574219 35.027344 18 35.027344 C 17.425781 35.027344 16.855469 35 16.285156 34.941406 C 15.710938 34.886719 15.144531 34.800781 14.582031 34.691406 C 14.019531 34.578125 13.464844 34.4375 12.917969 34.273438 C 12.367188 34.105469 11.828125 33.914062 11.296875 33.695312 C 10.769531 33.472656 10.25 33.230469 9.746094 32.960938 C 9.238281 32.6875 8.746094 32.394531 8.269531 32.074219 C 7.792969 31.757812 7.332031 31.414062 6.890625 31.050781 C 6.445312 30.6875 6.023438 30.304688 5.617188 29.898438 C 5.210938 29.492188 4.824219 29.066406 4.460938 28.625 C 4.097656 28.179688 3.757812 27.71875 3.4375 27.242188 C 3.121094 26.765625 2.824219 26.273438 2.554688 25.769531 C 2.285156 25.261719 2.039062 24.746094 1.820312 24.214844 C 1.601562 23.6875 1.40625 23.144531 1.242188 22.597656 C 1.074219 22.046875 0.933594 21.492188 0.824219 20.929688 C 0.710938 20.367188 0.628906 19.800781 0.570312 19.230469 C 0.515625 18.660156 0.488281 18.085938 0.488281 17.511719 C 0.488281 16.941406 0.515625 16.367188 0.570312 15.796875 C 0.628906 15.226562 0.710938 14.660156 0.824219 14.097656 C 0.933594 13.535156 1.074219 12.976562 1.242188 12.429688 C 1.40625 11.878906 1.601562 11.339844 1.820312 10.8125 C 2.039062 10.28125 2.285156 9.761719 2.554688 9.257812 C 2.824219 8.75 3.121094 8.261719 3.4375 7.785156 C 3.757812 7.304688 4.097656 6.847656 4.460938 6.402344 C 4.824219 5.960938 5.210938 5.535156 5.617188 5.128906 C 6.023438 4.722656 6.445312 4.339844 6.890625 3.976562 C 7.332031 3.613281 7.792969 3.269531 8.269531 2.953125 C 8.746094 2.632812 9.238281 2.339844 9.746094 2.066406 C 10.25 1.796875 10.769531 1.550781 11.296875 1.332031 C 11.828125 1.113281 12.367188 0.921875 12.917969 0.753906 C 13.464844 0.585938 14.019531 0.449219 14.582031 0.335938 C 15.144531 0.226562 15.710938 0.140625 16.285156 0.0859375 C 16.855469 0.0273438 17.425781 0 18 0 C 18.574219 0 19.144531 0.0273438 19.714844 0.0859375 C 20.289062 0.140625 20.855469 0.226562 21.417969 0.335938 C 21.980469 0.449219 22.535156 0.585938 23.082031 0.753906 C 23.632812 0.921875 24.171875 1.113281 24.703125 1.332031 C 25.230469 1.550781 25.75 1.796875 26.253906 2.066406 C 26.761719 2.339844 27.253906 2.632812 27.730469 2.953125 C 28.207031 3.269531 28.667969 3.613281 29.109375 3.976562 C 29.554688 4.339844 29.976562 4.722656 30.382812 5.128906 C 30.789062 5.535156 31.175781 5.960938 31.539062 6.402344 C 31.902344 6.847656 32.242188 7.304688 32.5625 7.785156 C 32.878906 8.261719 33.175781 8.75 33.445312 9.257812 C 33.714844 9.761719 33.960938 10.28125 34.179688 10.8125 C 34.398438 11.339844 34.59375 11.878906 34.757812 12.429688 C 34.925781 12.976562 35.066406 13.535156 35.175781 14.097656 C 35.289062 14.660156 35.371094 15.226562 35.429688 15.796875 C 35.484375 16.367188 35.511719 16.941406 35.511719 17.511719 Z M 35.511719 17.511719 " fill-opacity="1" fill-rule="nonzero"/></g><path fill="#ffffff" d="M 26.851562 28.898438 L 9.078125 28.898438 C 8.746094 28.898438 8.429688 28.832031 8.121094 28.707031 C 7.816406 28.578125 7.546875 28.398438 7.3125 28.164062 C 7.078125 27.929688 6.898438 27.660156 6.773438 27.355469 C 6.644531 27.050781 6.582031 26.734375 6.582031 26.402344 L 6.582031 8.625 C 6.582031 8.292969 6.644531 7.976562 6.773438 7.671875 C 6.898438 7.363281 7.078125 7.09375 7.3125 6.863281 C 7.546875 6.628906 7.816406 6.445312 8.121094 6.320312 C 8.429688 6.195312 8.746094 6.128906 9.078125 6.128906 L 26.851562 6.128906 C 27.183594 6.128906 27.503906 6.195312 27.808594 6.320312 C 28.113281 6.445312 28.382812 6.628906 28.617188 6.863281 C 28.851562 7.09375 29.03125 7.363281 29.15625 7.671875 C 29.285156 7.976562 29.347656 8.292969 29.347656 8.625 L 29.347656 26.402344 C 29.347656 26.734375 29.285156 27.050781 29.15625 27.355469 C 29.03125 27.660156 28.851562 27.929688 28.617188 28.164062 C 28.382812 28.398438 28.113281 28.578125 27.808594 28.707031 C 27.503906 28.832031 27.183594 28.898438 26.851562 28.898438 Z M 9.078125 7.070312 C 8.871094 7.070312 8.671875 7.109375 8.480469 7.1875 C 8.292969 7.269531 8.125 7.378906 7.976562 7.527344 C 7.832031 7.671875 7.71875 7.839844 7.640625 8.03125 C 7.5625 8.222656 7.523438 8.417969 7.519531 8.625 L 7.519531 26.402344 C 7.523438 26.609375 7.5625 26.804688 7.640625 26.996094 C 7.71875 27.1875 7.832031 27.355469 7.976562 27.5 C 8.125 27.648438 8.292969 27.757812 8.480469 27.839844 C 8.671875 27.917969 8.871094 27.957031 9.078125 27.957031 L 26.851562 27.957031 C 27.058594 27.957031 27.257812 27.917969 27.449219 27.839844 C 27.636719 27.757812 27.808594 27.648438 27.953125 27.5 C 28.097656 27.355469 28.210938 27.1875 28.289062 26.996094 C 28.367188 26.804688 28.410156 26.609375 28.410156 26.402344 L 28.410156 8.625 C 28.410156 8.417969 28.367188 8.222656 28.289062 8.03125 C 28.210938 7.839844 28.097656 7.671875 27.953125 7.527344 C 27.808594 7.378906 27.636719 7.269531 27.449219 7.1875 C 27.257812 7.109375 27.058594 7.070312 26.851562 7.070312 Z M 9.078125 7.070312 " fill-opacity="1" fill-rule="nonzero"/><path fill="#ffffff" d="M 26.207031 27.1875 L 9.722656 27.1875 C 9.53125 27.1875 9.351562 27.148438 9.175781 27.078125 C 9 27.003906 8.847656 26.902344 8.710938 26.765625 C 8.578125 26.632812 8.472656 26.476562 8.402344 26.304688 C 8.328125 26.128906 8.292969 25.945312 8.292969 25.753906 L 8.292969 9.269531 C 8.292969 9.082031 8.328125 8.898438 8.402344 8.722656 C 8.472656 8.550781 8.578125 8.394531 8.710938 8.261719 C 8.847656 8.125 9 8.023438 9.175781 7.949219 C 9.351562 7.878906 9.53125 7.839844 9.722656 7.839844 L 26.207031 7.839844 C 26.398438 7.839844 26.578125 7.878906 26.753906 7.949219 C 26.929688 8.023438 27.082031 8.125 27.21875 8.261719 C 27.351562 8.394531 27.457031 8.550781 27.527344 8.722656 C 27.601562 8.898438 27.636719 9.082031 27.636719 9.269531 L 27.636719 25.753906 C 27.636719 25.945312 27.601562 26.128906 27.527344 26.304688 C 27.457031 26.476562 27.351562 26.632812 27.21875 26.765625 C 27.082031 26.902344 26.929688 27.003906 26.753906 27.078125 C 26.578125 27.148438 26.398438 27.1875 26.207031 27.1875 Z M 9.722656 8.78125 C 9.585938 8.78125 9.472656 8.828125 9.375 8.925781 C 9.28125 9.019531 9.230469 9.136719 9.230469 9.273438 L 9.230469 25.753906 C 9.230469 25.890625 9.28125 26.007812 9.375 26.101562 C 9.472656 26.199219 9.585938 26.246094 9.722656 26.246094 L 26.207031 26.246094 C 26.34375 26.246094 26.457031 26.199219 26.554688 26.101562 C 26.648438 26.007812 26.699219 25.890625 26.699219 25.753906 L 26.699219 9.269531 C 26.699219 9.136719 26.648438 9.019531 26.554688 8.925781 C 26.457031 8.828125 26.34375 8.78125 26.207031 8.78125 Z M 9.722656 8.78125 " fill-opacity="1" fill-rule="nonzero"/><path fill="#ffffff" d="M 12.785156 25.597656 L 10.800781 25.597656 C 10.671875 25.597656 10.5625 25.550781 10.46875 25.460938 C 10.378906 25.367188 10.332031 25.257812 10.332031 25.128906 L 10.332031 14.207031 C 10.332031 14.078125 10.378906 13.96875 10.46875 13.875 C 10.5625 13.785156 10.671875 13.738281 10.800781 13.738281 L 12.785156 13.738281 C 12.917969 13.738281 13.027344 13.785156 13.121094 13.875 C 13.210938 13.96875 13.257812 14.078125 13.257812 14.207031 L 13.257812 25.128906 C 13.257812 25.257812 13.210938 25.367188 13.121094 25.460938 C 13.027344 25.550781 12.917969 25.597656 12.785156 25.597656 Z M 11.273438 24.660156 L 12.316406 24.660156 L 12.316406 14.679688 L 11.273438 14.679688 Z M 11.75 12.828125 C 11.277344 12.835938 10.878906 12.667969 10.550781 12.328125 C 10.234375 11.996094 10.078125 11.597656 10.082031 11.136719 C 10.082031 10.164062 10.820312 9.425781 11.796875 9.425781 C 12.769531 9.425781 13.480469 10.144531 13.484375 11.132812 C 13.503906 11.589844 13.355469 11.984375 13.035156 12.316406 C 12.71875 12.648438 12.261719 12.828125 11.75 12.828125 Z M 11.792969 10.367188 C 11.339844 10.367188 11.023438 10.683594 11.023438 11.136719 C 11.023438 11.570312 11.328125 11.886719 11.75 11.886719 C 12.007812 11.886719 12.21875 11.808594 12.359375 11.660156 C 12.496094 11.519531 12.554688 11.347656 12.542969 11.152344 C 12.542969 11.148438 12.542969 11.144531 12.542969 11.136719 C 12.542969 10.671875 12.25 10.367188 11.792969 10.367188 Z M 13.480469 11.136719 Z M 13.480469 11.136719 " fill-opacity="1" fill-rule="nonzero"/><path fill="#ffffff" d="M 25.375 25.597656 L 23.390625 25.597656 C 23.261719 25.597656 23.148438 25.550781 23.058594 25.460938 C 22.964844 25.367188 22.921875 25.257812 22.921875 25.128906 L 22.921875 18.832031 C 22.921875 17.003906 22.230469 16.078125 20.863281 16.078125 C 19.695312 16.078125 18.910156 16.929688 18.652344 17.773438 C 18.648438 17.78125 18.648438 17.789062 18.644531 17.796875 C 18.578125 17.984375 18.535156 18.269531 18.535156 18.5625 L 18.535156 25.128906 C 18.535156 25.257812 18.492188 25.367188 18.398438 25.460938 C 18.308594 25.550781 18.195312 25.597656 18.066406 25.597656 L 16.082031 25.597656 C 15.953125 25.597656 15.839844 25.550781 15.75 25.460938 C 15.65625 25.367188 15.609375 25.257812 15.609375 25.128906 L 15.609375 17.164062 C 15.609375 15.949219 15.585938 15.074219 15.523438 14.242188 C 15.511719 14.105469 15.554688 13.988281 15.644531 13.886719 C 15.738281 13.789062 15.855469 13.738281 15.992188 13.738281 L 17.75 13.738281 C 17.875 13.738281 17.980469 13.78125 18.074219 13.863281 C 18.164062 13.949219 18.210938 14.054688 18.21875 14.179688 L 18.257812 14.777344 C 18.480469 14.558594 18.726562 14.367188 18.988281 14.199219 C 19.726562 13.734375 20.601562 13.488281 21.519531 13.488281 C 22.132812 13.488281 23.316406 13.625 24.328125 14.527344 C 25.339844 15.433594 25.847656 16.804688 25.847656 18.609375 L 25.847656 25.128906 C 25.847656 25.257812 25.800781 25.367188 25.707031 25.460938 C 25.617188 25.550781 25.507812 25.597656 25.375 25.597656 Z M 23.859375 24.660156 L 24.90625 24.660156 L 24.90625 18.609375 C 24.90625 14.730469 22.3125 14.429688 21.519531 14.429688 C 19.855469 14.429688 18.757812 15.398438 18.324219 16.230469 C 18.238281 16.398438 18.097656 16.484375 17.910156 16.484375 L 17.863281 16.484375 C 17.738281 16.484375 17.632812 16.441406 17.542969 16.355469 C 17.449219 16.269531 17.402344 16.167969 17.394531 16.042969 L 17.308594 14.679688 L 16.492188 14.679688 C 16.535156 15.390625 16.550781 16.164062 16.550781 17.164062 L 16.550781 24.660156 L 17.597656 24.660156 L 17.597656 18.5625 C 17.597656 18.160156 17.652344 17.78125 17.757812 17.492188 C 17.964844 16.828125 18.335938 16.28125 18.875 15.84375 C 19.457031 15.375 20.117188 15.136719 20.863281 15.140625 C 22.769531 15.140625 23.863281 16.488281 23.863281 18.835938 Z M 23.859375 24.660156 " fill-opacity="1" fill-rule="nonzero"/></svg>