<svg xmlns="http://www.w3.org/2000/svg" xmlns:xlink="http://www.w3.org/1999/xlink" width="48" zoomAndPan="magnify" viewBox="0 0 36 36.000001" height="48" preserveAspectRatio="xMidYMid meet" version="1.0"><defs><clipPath id="fbdecf41c3"><path d="M 11.125 9.617188 L 14.789062 9.617188 L 14.789062 13.28125 L 11.125 13.28125 Z M 11.125 9.617188 " clip-rule="nonzero"/></clipPath><clipPath id="cc5d0fee94"><path d="M 12.601562 9.632812 L 13.328125 9.632812 C 14.136719 9.632812 14.789062 10.285156 14.789062 11.09375 L 14.789062 11.820312 C 14.789062 12.628906 14.136719 13.28125 13.328125 13.28125 L 12.601562 13.28125 C 11.792969 13.28125 11.140625 12.628906 11.140625 11.820312 L 11.140625 11.09375 C 11.140625 10.285156 11.792969 9.632812 12.601562 9.632812 Z M 12.601562 9.632812 " clip-rule="nonzero"/></clipPath><clipPath id="0f743a0ba1"><path d="M 0.777344 0 L 35.511719 0 L 35.511719 35.027344 L 0.777344 35.027344 Z M 0.777344 0 " clip-rule="nonzero"/></clipPath></defs><g clip-path="url(#fbdecf41c3)"><g clip-path="url(#cc5d0fee94)"><path fill="#ee374b" d="M 11.140625 9.632812 L 14.789062 9.632812 L 14.789062 13.28125 L 11.140625 13.28125 Z M 11.140625 9.632812 " fill-opacity="1" fill-rule="nonzero"/></g></g><g clip-path="url(#0f743a0ba1)"><path fill="#10c03e" d="M 35.808594 17.515625 C 35.808594 18.089844 35.78125 18.660156 35.722656 19.234375 C 35.667969 19.804688 35.582031 20.371094 35.472656 20.933594 C 35.359375 21.496094 35.21875 22.050781 35.054688 22.601562 C 34.886719 23.148438 34.695312 23.6875 34.476562 24.21875 C 34.253906 24.75 34.011719 25.265625 33.738281 25.773438 C 33.46875 26.277344 33.175781 26.769531 32.855469 27.246094 C 32.539062 27.722656 32.195312 28.183594 31.832031 28.625 C 31.46875 29.070312 31.082031 29.496094 30.679688 29.898438 C 30.273438 30.304688 29.847656 30.691406 29.40625 31.054688 C 28.960938 31.417969 28.5 31.757812 28.023438 32.078125 C 27.546875 32.398438 27.054688 32.691406 26.550781 32.960938 C 26.042969 33.230469 25.527344 33.476562 24.996094 33.695312 C 24.464844 33.914062 23.925781 34.109375 23.378906 34.277344 C 22.828125 34.441406 22.273438 34.582031 21.710938 34.691406 C 21.148438 34.804688 20.582031 34.890625 20.011719 34.945312 C 19.441406 35 18.867188 35.03125 18.292969 35.03125 C 17.722656 35.03125 17.148438 35 16.578125 34.945312 C 16.007812 34.890625 15.441406 34.804688 14.878906 34.691406 C 14.316406 34.582031 13.757812 34.441406 13.210938 34.277344 C 12.660156 34.109375 12.121094 33.914062 11.59375 33.695312 C 11.0625 33.476562 10.542969 33.230469 10.039062 32.960938 C 9.53125 32.691406 9.042969 32.398438 8.5625 32.078125 C 8.085938 31.757812 7.628906 31.417969 7.183594 31.054688 C 6.742188 30.691406 6.316406 30.304688 5.910156 29.898438 C 5.503906 29.496094 5.121094 29.070312 4.757812 28.625 C 4.390625 28.183594 4.050781 27.722656 3.730469 27.246094 C 3.414062 26.769531 3.121094 26.277344 2.847656 25.773438 C 2.578125 25.265625 2.332031 24.75 2.113281 24.21875 C 1.894531 23.6875 1.703125 23.148438 1.535156 22.601562 C 1.367188 22.050781 1.230469 21.496094 1.117188 20.933594 C 1.003906 20.371094 0.921875 19.804688 0.863281 19.234375 C 0.808594 18.660156 0.78125 18.089844 0.78125 17.515625 C 0.78125 16.941406 0.808594 16.371094 0.863281 15.800781 C 0.921875 15.230469 1.003906 14.660156 1.117188 14.097656 C 1.230469 13.535156 1.367188 12.980469 1.535156 12.433594 C 1.703125 11.882812 1.894531 11.34375 2.113281 10.8125 C 2.332031 10.285156 2.578125 9.765625 2.847656 9.261719 C 3.121094 8.753906 3.414062 8.261719 3.730469 7.785156 C 4.050781 7.308594 4.390625 6.847656 4.757812 6.40625 C 5.121094 5.960938 5.503906 5.539062 5.910156 5.132812 C 6.316406 4.726562 6.742188 4.339844 7.183594 3.976562 C 7.628906 3.613281 8.085938 3.273438 8.5625 2.953125 C 9.042969 2.636719 9.53125 2.339844 10.039062 2.070312 C 10.542969 1.800781 11.0625 1.554688 11.59375 1.335938 C 12.121094 1.117188 12.660156 0.921875 13.210938 0.757812 C 13.757812 0.589844 14.316406 0.449219 14.878906 0.339844 C 15.441406 0.226562 16.007812 0.144531 16.578125 0.0859375 C 17.148438 0.03125 17.722656 0.00390625 18.292969 0.00390625 C 18.867188 0.00390625 19.441406 0.03125 20.011719 0.0859375 C 20.582031 0.144531 21.148438 0.226562 21.710938 0.339844 C 22.273438 0.449219 22.828125 0.589844 23.378906 0.757812 C 23.925781 0.921875 24.464844 1.117188 24.996094 1.335938 C 25.527344 1.554688 26.042969 1.800781 26.550781 2.070312 C 27.054688 2.339844 27.546875 2.636719 28.023438 2.953125 C 28.5 3.273438 28.960938 3.613281 29.40625 3.976562 C 29.847656 4.339844 30.273438 4.726562 30.679688 5.132812 C 31.082031 5.539062 31.46875 5.960938 31.832031 6.40625 C 32.195312 6.847656 32.539062 7.308594 32.855469 7.785156 C 33.175781 8.261719 33.46875 8.753906 33.738281 9.261719 C 34.011719 9.765625 34.253906 10.285156 34.476562 10.8125 C 34.695312 11.34375 34.886719 11.882812 35.054688 12.433594 C 35.21875 12.980469 35.359375 13.535156 35.472656 14.097656 C 35.582031 14.660156 35.667969 15.230469 35.722656 15.800781 C 35.78125 16.371094 35.808594 16.941406 35.808594 17.515625 Z M 35.808594 17.515625 " fill-opacity="1" fill-rule="nonzero"/></g><path fill="#ffffff" d="M 18.292969 31.460938 C 14.570312 31.460938 11.066406 30.011719 8.433594 27.378906 C 5.800781 24.742188 4.347656 21.242188 4.347656 17.515625 C 4.347656 13.789062 5.800781 10.289062 8.433594 7.65625 C 11.066406 5.019531 14.570312 3.570312 18.292969 3.570312 C 22.019531 3.570312 25.523438 5.019531 28.15625 7.65625 C 30.789062 10.289062 32.242188 13.789062 32.242188 17.515625 C 32.242188 21.242188 30.789062 24.742188 28.15625 27.378906 C 25.523438 30.011719 22.019531 31.460938 18.292969 31.460938 Z M 18.292969 4.175781 C 14.730469 4.175781 11.378906 5.5625 8.859375 8.082031 C 6.339844 10.601562 4.953125 13.953125 4.953125 17.515625 C 4.953125 21.078125 6.339844 24.429688 8.859375 26.949219 C 11.378906 29.46875 14.730469 30.859375 18.292969 30.859375 C 21.859375 30.859375 25.207031 29.46875 27.730469 26.949219 C 30.25 24.429688 31.636719 21.078125 31.636719 17.515625 C 31.636719 13.953125 30.25 10.601562 27.730469 8.082031 C 25.207031 5.5625 21.859375 4.175781 18.292969 4.175781 Z M 18.292969 4.175781 " fill-opacity="1" fill-rule="nonzero"/><path fill="#ffffff" d="M 25.21875 20.804688 L 22.304688 19.222656 C 22.007812 19.0625 21.636719 19.113281 21.394531 19.355469 L 19.832031 20.917969 C 18.789062 20.40625 17.8125 19.707031 16.957031 18.851562 C 16.105469 18 15.402344 17.019531 14.890625 15.980469 L 16.457031 14.414062 C 16.695312 14.175781 16.75 13.804688 16.585938 13.503906 L 15.007812 10.59375 C 14.847656 10.300781 14.523438 10.144531 14.199219 10.203125 L 11.640625 10.652344 C 11.285156 10.71875 11.019531 11.015625 10.992188 11.375 C 10.761719 14.730469 12.179688 18.265625 14.859375 20.949219 C 17.542969 23.632812 21.078125 25.050781 24.433594 24.816406 C 24.796875 24.792969 25.09375 24.527344 25.15625 24.171875 L 25.609375 21.613281 C 25.664062 21.285156 25.507812 20.960938 25.21875 20.804688 Z M 25.21875 20.804688 " fill-opacity="1" fill-rule="nonzero"/></svg>