<svg xmlns="http://www.w3.org/2000/svg" xmlns:xlink="http://www.w3.org/1999/xlink" width="48" zoomAndPan="magnify" viewBox="0 0 36 36.000001" height="48" preserveAspectRatio="xMidYMid meet" version="1.0"><defs><clipPath id="510df38d76"><path d="M 11.125 9.617188 L 14.789062 9.617188 L 14.789062 13.28125 L 11.125 13.28125 Z M 11.125 9.617188 " clip-rule="nonzero"/></clipPath><clipPath id="54c4a23338"><path d="M 12.601562 9.632812 L 13.328125 9.632812 C 14.136719 9.632812 14.789062 10.285156 14.789062 11.09375 L 14.789062 11.820312 C 14.789062 12.628906 14.136719 13.28125 13.328125 13.28125 L 12.601562 13.28125 C 11.792969 13.28125 11.140625 12.628906 11.140625 11.820312 L 11.140625 11.09375 C 11.140625 10.285156 11.792969 9.632812 12.601562 9.632812 Z M 12.601562 9.632812 " clip-rule="nonzero"/></clipPath><clipPath id="997f46a38e"><path d="M 0.777344 0 L 35.511719 0 L 35.511719 35.027344 L 0.777344 35.027344 Z M 0.777344 0 " clip-rule="nonzero"/></clipPath></defs><g clip-path="url(#510df38d76)"><g clip-path="url(#54c4a23338)"><path fill="#ee374b" d="M 11.140625 9.632812 L 14.789062 9.632812 L 14.789062 13.28125 L 11.140625 13.28125 Z M 11.140625 9.632812 " fill-opacity="1" fill-rule="nonzero"/></g></g><g clip-path="url(#997f46a38e)"><path fill="#ff0000" d="M 18.3125 35.027344 C 27.988281 35.027344 35.832031 27.183594 35.832031 17.507812 C 35.832031 7.832031 27.988281 -0.015625 18.3125 -0.015625 C 8.632812 -0.015625 0.789062 7.832031 0.789062 17.507812 C 0.789062 27.183594 8.632812 35.027344 18.3125 35.027344 Z M 18.3125 35.027344 " fill-opacity="1" fill-rule="nonzero"/><path stroke-linecap="butt" transform="matrix(0.394893, 0, 0, 0.394893, 0.778378, -0.157955)" fill="none" stroke-linejoin="miter" d="M 70.813597 47.683346 C 72.425979 33.003745 61.84163 19.798039 47.162029 18.175765 C 32.482428 16.563383 19.266831 27.157624 17.654449 41.837225 C 16.042067 56.516826 26.626415 69.722531 41.306016 71.334913 C 55.985617 72.957187 69.201215 62.362947 70.813597 47.683346 Z M 70.813597 47.683346 " stroke="#ffffff" stroke-width="4.69" stroke-opacity="1" stroke-miterlimit="10"/></g><path fill="#ffffff" d="M 23.28125 17.484375 L 14.960938 22.289062 L 14.960938 12.679688 Z M 23.28125 17.484375 " fill-opacity="1" fill-rule="nonzero"/></svg>